<?xml version="1.0" encoding="UTF-8"?>
<svg version="1.1" xmlns="http://www.w3.org/2000/svg" width="20" height="20" viewBox="0 0 400 400" fill="none">
<path d="M0 0 C128.37 0 256.74 0 389 0 C389 128.37 389 256.74 389 389 C260.63 389 132.26 389 0 389 C0 260.63 0 132.26 0 0 Z " fill="#252525" transform="translate(0,0)"/>
<path d="M0 0 C128.37 0 256.74 0 389 0 C389 128.37 389 256.74 389 389 C260.63 389 132.26 389 0 389 C0 260.63 0 132.26 0 0 Z M175.94360352 50.92602539 C174.17512781 52.69991003 172.40129956 54.46831777 170.62695312 56.23632812 C165.38457967 61.47595568 160.18868113 66.70286594 155.40942383 72.3762207 C153.8506832 74.17202598 152.19741597 75.83538792 150.5 77.5 C148.20673964 79.75797943 146.03571972 82.05996504 143.9375 84.5 C140.40165985 88.6051024 136.70669323 92.5499991 133 96.5 C128.8611371 100.91342592 124.76981191 105.3450927 120.8203125 109.9296875 C116.81426772 114.48591869 112.6476704 118.90053281 108.52441406 123.35058594 C106.21468976 125.84970467 103.9205045 128.36281071 101.625 130.875 C97.36498522 135.53014659 93.06389648 140.14479318 88.75 144.75 C83.54639894 150.30381898 83.54639894 150.30381898 78.5 156 C75.26169724 159.7564312 71.88585308 163.37707725 68.5 167 C67.60027466 167.96377563 67.60027466 167.96377563 66.68237305 168.94702148 C63.52085719 172.32703128 60.34421596 175.6912467 57.14453125 179.03515625 C27.91948908 209.67131863 12.943261 239.60461508 13.87255859 282.64306641 C14.7787549 306.51317972 25.33294345 330.16881696 41 348 C41.66257812 348.80566406 42.32515625 349.61132812 43.0078125 350.44140625 C60.17997111 370.68681096 85.5477573 383.78623888 112 386 C125.85387516 386.61631172 139.58562203 386.85721928 153 383 C154.20011719 382.67128906 155.40023437 382.34257812 156.63671875 382.00390625 C163.62299948 379.89415167 170.13101648 377.18003936 176.625 373.875 C177.26872559 373.55772949 177.91245117 373.24045898 178.57568359 372.91357422 C190.51023778 366.55302967 200.28415157 356.02823754 209.70458984 346.5012207 C211.38968716 344.79765184 213.08286615 343.10243734 214.77734375 341.40820312 C219.89969277 336.26874158 224.91929624 331.10103447 229.63525391 325.58081055 C231.87869762 322.98218835 234.34521392 320.63220725 236.8125 318.25 C238.71026547 316.29801266 240.49731452 314.30483681 242.28125 312.25 C246.51841649 307.37138613 250.95150214 302.690373 255.39453125 298 C259.12908944 294.04121368 262.76229191 290.01582602 266.33007812 285.90625 C268.83074118 283.05169194 271.41266378 280.27581766 274 277.5 C277.2124669 274.03798265 280.41106665 270.57347192 283.5 267 C287.06020071 262.88406064 290.76230125 258.90416562 294.46142578 254.91357422 C297.46095649 251.67520063 300.43415053 248.41699568 303.375 245.125 C310.0801741 237.64661663 316.98603579 230.35228125 323.85253906 223.02246094 C334.5384421 211.61386646 334.5384421 211.61386646 345 200 C345.46116211 199.48646973 345.92232422 198.97293945 346.39746094 198.44384766 C364.41375776 178.34694401 377.97178788 155.21521629 378.23828125 127.48046875 C378.246353 126.66363113 378.25442474 125.84679352 378.26274109 125.00520325 C378.27652875 123.27635786 378.28727452 121.54748587 378.29516602 119.81860352 C378.30659281 118.08414491 378.32689377 116.34971882 378.35668945 114.61547852 C378.6199115 99.25007545 376.98073585 84.88037081 370.3125 70.8125 C369.96856201 70.06895264 369.62462402 69.32540527 369.27026367 68.55932617 C356.18855434 41.03611766 333.7164524 19.46233569 304.953125 8.87890625 C253.36647612 -8.29567319 211.43779204 15.30278514 175.94360352 50.92602539 Z " fill="#FEFEFE" transform="translate(0,0)"/>
<path d="M0 0 C1.09795898 0.29132812 2.19591797 0.58265625 3.32714844 0.8828125 C9.72031613 2.70999198 14.88218852 5.0045876 20.3125 8.8125 C21.24835938 9.37453125 22.18421875 9.9365625 23.1484375 10.515625 C38.4108454 19.8139535 51.71191706 33.01101615 58.3125 49.8125 C58.73208984 50.85664062 58.73208984 50.85664062 59.16015625 51.921875 C60.37175078 55.01003222 61.3125 57.46649389 61.3125 60.8125 C61.9725 60.8125 62.6325 60.8125 63.3125 60.8125 C63.79475331 62.9993216 64.27315583 65.18699255 64.75 67.375 C65.01683594 68.59316406 65.28367187 69.81132813 65.55859375 71.06640625 C70.87417334 97.47905303 67.69313796 125.36797195 52.7734375 148.1640625 C49.91821171 152.0735255 46.76489004 155.41352246 43.3125 158.8125 C32.72558353 169.16601212 32.72558353 169.16601212 22.78125 180.125 C20.66483626 182.5566243 18.35729524 184.77741158 16.05859375 187.03515625 C14.24772357 188.87843574 12.55928646 190.79072799 10.875 192.75 C7.83570349 196.27884763 4.60233153 199.54255027 1.28515625 202.80859375 C-1.26087829 205.39496151 -3.60771557 208.1278528 -5.97265625 210.87890625 C-8.18276138 213.37093823 -10.54215494 215.68310729 -12.92578125 218.0078125 C-15.45717315 220.60094567 -17.7336471 223.39461026 -20.01171875 226.2109375 C-22.01168214 228.12232443 -22.89474075 228.85387421 -25.6875 228.8125 C-28.09765625 226.8203125 -28.09765625 226.8203125 -30.75 223.9375 C-34.16664016 220.24855618 -37.59351061 217.04935248 -41.546875 213.9375 C-49.57300781 207.46636679 -56.65084891 200.02534537 -63.875 192.6875 C-65.99926327 190.53538468 -68.12508564 188.3848673 -70.25398254 186.23733521 C-71.56700567 184.91229484 -72.8773539 183.58459573 -74.18437195 182.25363159 C-77.91153595 178.48620363 -81.77091191 174.95447127 -85.78193665 171.49197388 C-88.60104219 169.0073469 -91.2407391 166.36527796 -93.875 163.6875 C-94.4218042 163.13690918 -94.9686084 162.58631836 -95.53198242 162.01904297 C-97.83024364 159.7047054 -100.12237516 157.3843335 -102.41503906 155.06445312 C-110.97804179 146.40797204 -110.97804179 146.40797204 -120.01953125 138.2578125 C-123.47493089 135.2636723 -126.58890453 131.92551946 -129.78125 128.65625 C-131.90600628 126.52586671 -134.12328243 124.54933361 -136.40625 122.58984375 C-141.40783004 118.25900541 -146.03472048 113.57423584 -150.6875 108.875 C-151.55761719 108.00037109 -152.42773438 107.12574219 -153.32421875 106.22460938 C-155.44763549 104.08952551 -157.56866378 101.95212795 -159.6875 99.8125 C-158.32139732 96.77523042 -156.75676193 94.60334974 -154.45703125 92.203125 C-153.81830078 91.53023438 -153.17957031 90.85734375 -152.52148438 90.1640625 C-151.85439453 89.47054687 -151.18730469 88.77703125 -150.5 88.0625 C-145.9729867 83.32377563 -141.54558075 78.53722834 -137.25268555 73.58496094 C-134.67664807 70.66778233 -131.88507157 67.98924854 -129.09375 65.28125 C-126.45702322 62.57603681 -123.99688553 59.75254094 -121.52148438 56.90039062 C-118.65186582 53.63348728 -115.6728248 50.47343215 -112.6875 47.3125 C-108.70047302 43.08718059 -104.71952309 38.85919633 -100.80078125 34.5703125 C-82.9389862 15.08388699 -65.06367091 2.41367648 -38.6875 -2.1875 C-37.718125 -2.36925781 -36.74875 -2.55101563 -35.75 -2.73828125 C-23.33025882 -4.56005451 -12.07870335 -3.23554981 0 0 Z " fill="#F9F9F9" transform="translate(293.6875,23.1875)"/>
<path d="M0 0 C3.35043397 1.45188594 5.50486196 3.2819659 8.046875 5.88671875 C8.81 6.66080078 9.573125 7.43488281 10.359375 8.23242188 C11.14828125 9.04259766 11.9371875 9.85277344 12.75 10.6875 C19.14930401 17.25328125 19.14930401 17.25328125 25.921875 23.42578125 C32.03623611 28.67219468 37.57066457 34.5286368 43.22265625 40.26171875 C47.70319997 44.78139386 52.22352004 49.14011272 57.05664062 53.27929688 C61.46818098 57.18539441 65.51784316 61.4817383 69.64453125 65.68359375 C70.34964844 66.39644531 71.05476562 67.10929687 71.78125 67.84375 C72.40064453 68.47474609 73.02003906 69.10574219 73.65820312 69.75585938 C75.65330693 71.66776453 77.68687921 73.48059173 79.77514648 75.28833008 C86.23162842 80.90225155 92.25792173 86.9576144 98.33032227 92.98022461 C99.82928267 94.4624625 101.3336089 95.93929196 102.84301758 97.41088867 C105.03374279 99.54719474 107.20787338 101.69917571 109.37890625 103.85546875 C110.05893204 104.51282516 110.73895782 105.17018158 111.43959045 105.84745789 C112.36196754 106.77411003 112.36196754 106.77411003 113.30297852 107.71948242 C114.12282982 108.52720345 114.12282982 108.52720345 114.95924377 109.35124207 C116 111 116 111 115.823349 113.03413391 C114.47213566 116.26035327 111.87279172 118.38724432 109.375 120.75 C108.27283118 121.81965167 107.17256316 122.89126545 106.07421875 123.96484375 C105.54231934 124.4841748 105.01041992 125.00350586 104.46240234 125.53857422 C102.02437708 127.97497142 99.80719908 130.58476621 97.57421875 133.20703125 C95.41298779 135.66858215 93.07805572 137.93222083 90.7421875 140.2265625 C88.95284173 142.04800415 87.28711468 143.93714279 85.625 145.875 C83.03365795 148.8846753 80.32745217 151.71088616 77.5 154.5 C74.71378859 157.2485599 72.04691608 160.02859791 69.5 163 C65.57240879 167.57610046 61.29563889 171.77266632 57 176 C55.80503906 177.20269531 55.80503906 177.20269531 54.5859375 178.4296875 C42.61166534 190.33160756 32.61451341 198.22765271 16.06542969 202.46411133 C14.08893363 202.97692561 12.12775972 203.54774002 10.16796875 204.12109375 C5.10674679 205.36855618 0.06320781 205.33996673 -5.125 205.3125 C-6.13312744 205.31121094 -7.14125488 205.30992187 -8.17993164 205.30859375 C-16.11316273 205.20700776 -23.35724756 204.22527281 -31 202 C-31 201.34 -31 200.68 -31 200 C-31.58007812 199.87882813 -32.16015625 199.75765625 -32.7578125 199.6328125 C-44.98872604 197.00901917 -44.98872604 197.00901917 -50 193 C-50.680625 192.67 -51.36125 192.34 -52.0625 192 C-54 191 -54 191 -55.36328125 189.6015625 C-57.15593984 187.8474097 -58.98832786 186.68457324 -61.125 185.375 C-70.19104953 179.38493156 -80.03437208 170.08587849 -82.6875 159.171875 C-82.790625 158.45515625 -82.89375 157.7384375 -83 157 C-83.99 157 -84.98 157 -86 157 C-90.65830024 140.25230153 -90.00968388 123.79632556 -86 107 C-85.77183594 105.98292969 -85.54367188 104.96585937 -85.30859375 103.91796875 C-83.72480424 97.44705732 -81.24317582 91.80501219 -78 86 C-77.48824219 85.08347656 -76.97648437 84.16695313 -76.44921875 83.22265625 C-72.44445525 76.2963035 -72.44445525 76.2963035 -69 74 C-68.02441537 72.24394767 -67.05000916 70.48718665 -66.08984375 68.72265625 C-64.50914676 66.2241352 -62.33602773 64.79276547 -60 63 C-58.95373141 61.84068751 -57.93152739 60.65948097 -56.92578125 59.46484375 C-51.93676048 53.68942133 -46.46321431 48.41640208 -41.02734375 43.06640625 C-36.67805866 38.75900834 -32.50587704 34.38663319 -28.51904297 29.74169922 C-26.55354591 27.48810616 -24.45690698 25.39530821 -22.3125 23.3125 C-19.30408255 20.34480563 -16.59653867 17.33840686 -14 14 C-12.35697047 12.31002677 -10.68528688 10.64783606 -9 9 C-7.39448246 7.39718535 -5.79040998 5.79292237 -4.1875 4.1875 C-2.79166667 2.79166667 -1.39583333 1.39583333 0 0 Z " fill="#DCDCDC" transform="translate(120,139)"/>
<path d="M0 0 C4.08127903 1.61692677 6.80604354 4.54276644 9.8125 7.625 C10.61252441 8.43469238 10.61252441 8.43469238 11.42871094 9.26074219 C14.86870884 12.76765798 18.15094385 16.37592191 21.33984375 20.11328125 C26.54867544 26.32217468 26.54867544 26.32217468 33 31 C33 35 33 35 30.8125 37.44140625 C29.884375 38.28574219 28.95625 39.13007813 28 40 C22.7560259 45.17023071 17.64920756 50.28811642 13 56 C10.55983182 58.50117238 8.06510789 60.93656154 5.5625 63.375 C2.98325403 66.01715441 0.65100229 68.77488107 -1.66796875 71.64453125 C-2.10753906 72.09183594 -2.54710937 72.53914063 -3 73 C-3.66 73 -4.32 73 -5 73 C-5.38937744 73.87265503 -5.38937744 73.87265503 -5.78662109 74.76293945 C-7.0882569 77.16271589 -8.52543979 78.82663214 -10.4140625 80.79296875 C-11.08937012 81.50203369 -11.76467773 82.21109863 -12.46044922 82.94165039 C-13.17475098 83.68278076 -13.88905273 84.42391113 -14.625 85.1875 C-16.07921022 86.70990163 -17.53234654 88.23332982 -18.984375 89.7578125 C-19.67982422 90.48774414 -20.37527344 91.21767578 -21.09179688 91.96972656 C-24.03682386 95.10315087 -26.84537382 98.34126177 -29.6171875 101.62890625 C-31 103 -31 103 -33 103 C-33.21269531 103.55816406 -33.42539063 104.11632812 -33.64453125 104.69140625 C-35.45128774 107.76861975 -37.94229323 109.73622605 -40.6875 111.9375 C-41.22987305 112.37843994 -41.77224609 112.81937988 -42.33105469 113.27368164 C-43.87988664 114.52510638 -45.4396503 115.762966 -47 117 C-47.68191406 117.5465625 -48.36382812 118.093125 -49.06640625 118.65625 C-52.55473451 121.31094065 -55.94069698 122.86423059 -60.0390625 124.25390625 C-62.56687334 125.21568288 -64.76932021 126.63908122 -67.0859375 128.01953125 C-84.23639215 136.80476414 -110.00470559 135.07871144 -127.99169922 129.71533203 C-132.18247925 128.22262774 -135.85595236 126.05535542 -139.5546875 123.5859375 C-141.97721592 122.01477689 -144.31933614 121.04447271 -147 120 C-148.68704193 118.69254251 -150.35360035 117.35827971 -152 116 C-152.845625 115.525625 -153.69125 115.05125 -154.5625 114.5625 C-157.41886542 112.73149653 -158.94975317 110.69094896 -161 108 C-163.39078043 105.54945006 -165.82550157 103.16506608 -168.3125 100.8125 C-170 99 -170 99 -170 97 C-171.485 96.505 -171.485 96.505 -173 96 C-181.2566312 86.26318841 -188.69044193 71.88824933 -188 59 C-187.34 59 -186.68 59 -186 59 C-185.72027344 59.61746094 -185.44054687 60.23492187 -185.15234375 60.87109375 C-179.2800028 73.27665004 -171.09712346 83.08995459 -159.0390625 89.73828125 C-157 91 -157 91 -156 93 C-154.00854609 94.01691264 -152.00812926 95.01642648 -150 96 C-149.01 96.99 -149.01 96.99 -148 98 C-145.62533036 98.78016724 -143.28555037 99.48059545 -140.875 100.125 C-140.21628906 100.30675781 -139.55757812 100.48851562 -138.87890625 100.67578125 C-137.25423544 101.12315437 -135.62732107 101.56236535 -134 102 C-134 102.66 -134 103.32 -134 104 C-133.32453125 104.06058594 -132.6490625 104.12117188 -131.953125 104.18359375 C-130.61507812 104.30927734 -130.61507812 104.30927734 -129.25 104.4375 C-128.36828125 104.51871094 -127.4865625 104.59992188 -126.578125 104.68359375 C-124 105 -124 105 -122.15136719 105.50708008 C-110.56654846 108.16138659 -96.11899287 106.73870066 -85 103 C-83.93910156 102.73316406 -82.87820312 102.46632813 -81.78515625 102.19140625 C-69.80440146 99.04593387 -61.62737939 91.90991548 -52.88256836 83.50561523 C-49.20337713 80 -49.20337713 80 -47 80 C-46.76152344 79.4328125 -46.52304688 78.865625 -46.27734375 78.28125 C-44.73031477 75.51836033 -42.84581785 73.68958559 -40.5625 71.5 C-38.28800867 69.31169203 -36.19811229 67.27222959 -34.33984375 64.71875 C-33.89769531 64.1515625 -33.45554688 63.584375 -33 63 C-32.34 63 -31.68 63 -31 63 C-30.79761719 62.46890625 -30.59523437 61.9378125 -30.38671875 61.390625 C-28.39547572 57.95783421 -25.6553508 55.49100784 -22.8125 52.75 C-18.53431903 48.55614124 -14.4199701 44.32695987 -10.5390625 39.7578125 C-8.39465906 37.30862076 -6.07138779 35.06118444 -3.75 32.78125 C-1.30079832 30.28831258 0.95195332 27.64270929 3.21875 24.984375 C5.58259985 22.35096332 8.16768847 19.98903524 10.8125 17.640625 C12.17416882 16.0879877 12.17416882 16.0879877 12.03515625 14.15234375 C10.48724538 10.93385738 8.00055808 8.72836623 5.4375 6.3125 C3.60614124 4.55829886 1.79643318 2.79051413 0 1 C0 0.67 0 0.34 0 0 Z " fill="#7D7D7D" transform="translate(223,237)"/>
<path d="M0 0 C1.65 0.33 3.3 0.66 5 1 C5.02505615 1.69971924 5.0501123 2.39943848 5.07592773 3.12036133 C5.19337867 6.35119418 5.31541636 9.58183902 5.4375 12.8125 C5.47681641 13.91271484 5.51613281 15.01292969 5.55664062 16.14648438 C5.79715752 22.418425 6.19350318 28.62411933 6.89868164 34.86206055 C7 37 7 37 6 39 C4.35 39 2.7 39 1 39 C1 38.01 1 37.02 1 36 C0.34 36 -0.32 36 -1 36 C-2.99243965 29.3558885 -3.33462145 23.22766389 -3.3125 16.3125 C-3.33666992 14.78399414 -3.33666992 14.78399414 -3.36132812 13.22460938 C-3.36731015 4.07808802 -3.36731015 4.07808802 0 0 Z " fill="#FAFAFA" transform="translate(66,260)"/>
<path d="M0 0 C3.9406374 0 6.06514224 1.64176887 8.875 4.1875 C12.00973785 7.46441819 12.00973785 7.46441819 11.9375 11.4375 C11.628125 12.283125 11.31875 13.12875 11 14 C8.02901177 13.8618145 5.78174052 13.7414883 3.55859375 11.6328125 C2.34081797 10.11331914 1.16835853 8.55781137 0 7 C-0.66 6.67 -1.32 6.34 -2 6 C-1.125 1.125 -1.125 1.125 0 0 Z " fill="#FBFBFB" transform="translate(77,310)"/>
<path d="M0 0 C0.57105469 0.23976562 1.14210938 0.47953125 1.73046875 0.7265625 C2.4453125 2.95703125 2.4453125 2.95703125 2.73046875 5.7265625 C1.296875 7.96484375 1.296875 7.96484375 -0.70703125 10.0390625 C-1.36574219 10.73644531 -2.02445313 11.43382812 -2.703125 12.15234375 C-3.47849609 12.93158203 -3.47849609 12.93158203 -4.26953125 13.7265625 C-5.91953125 13.3965625 -7.56953125 13.0665625 -9.26953125 12.7265625 C-10 10.5 -10 10.5 -10.26953125 7.7265625 C-8.7578125 5.453125 -8.7578125 5.453125 -6.58203125 3.3515625 C-5.87691406 2.64257812 -5.17179687 1.93359375 -4.4453125 1.203125 C-2.26953125 -0.2734375 -2.26953125 -0.2734375 0 0 Z " fill="#F9F9F9" transform="translate(81.26953125,235.2734375)"/>
<path d="M0 0 C0.33 0.99 0.66 1.98 1 3 C-1.28356246 5.34138543 -3.57813374 7.67166982 -5.875 10 C-6.52597656 10.66773438 -7.17695312 11.33546875 -7.84765625 12.0234375 C-8.47285156 12.65507812 -9.09804687 13.28671875 -9.7421875 13.9375 C-10.3182373 14.52402344 -10.89428711 15.11054688 -11.48779297 15.71484375 C-13 17 -13 17 -15 17 C-15.33 17.99 -15.66 18.98 -16 20 C-16.66 20 -17.32 20 -18 20 C-18.10183594 20.59296875 -18.20367187 21.1859375 -18.30859375 21.796875 C-19.11355652 24.36184111 -20.11566902 25.42743483 -22.0625 27.25 C-22.61035156 27.77078125 -23.15820312 28.2915625 -23.72265625 28.828125 C-24.14417969 29.21484375 -24.56570312 29.6015625 -25 30 C-25.99 29.67 -26.98 29.34 -28 29 C-27.56768066 28.54262451 -27.13536133 28.08524902 -26.68994141 27.61401367 C-24.66723187 25.47284266 -22.64588887 23.33038951 -20.625 21.1875 C-19.89780762 20.41664063 -19.17061523 19.64578125 -18.42138672 18.8515625 C-13.47878473 13.60107508 -8.61011208 8.2968041 -3.8203125 2.90625 C-2 1 -2 1 0 0 Z " fill="#B0B0B0" transform="translate(108,152)"/>
<path d="M0 0 C0.66 0.33 1.32 0.66 2 1 C-5.59 8.59 -13.18 16.18 -21 24 C-21.66 23.67 -22.32 23.34 -23 23 C-8.1431293 6.74285575 -8.1431293 6.74285575 0 0 Z " fill="#D4D4D4" transform="translate(213,38)"/>
<path d="M0 0 C0.66064453 1.80664062 0.66064453 1.80664062 1 4 C-0.00048828 5.58398438 -0.00048828 5.58398438 -1.5703125 7.09375 C-2.1375 7.64933594 -2.7046875 8.20492188 -3.2890625 8.77734375 C-3.89492187 9.34582031 -4.50078125 9.91429687 -5.125 10.5 C-5.70765625 11.06847656 -6.2903125 11.63695312 -6.890625 12.22265625 C-9.46778383 14.71313934 -12.0601696 17.04787336 -14.8671875 19.28125 C-17.08601633 20.82551595 -17.08601633 20.82551595 -18 23 C-18.66 22.67 -19.32 22.34 -20 22 C-19.01 20.515 -19.01 20.515 -18 19 C-17.34 19 -16.68 19 -16 19 C-15.34 17.68 -14.68 16.36 -14 15 C-13.34 15 -12.68 15 -12 15 C-11.62875 14.13568359 -11.62875 14.13568359 -11.25 13.25390625 C-9.81305755 10.6629194 -8.14041667 8.97955193 -6 6.9375 C-3.62557202 4.66346144 -1.83652048 2.75478071 0 0 Z " fill="#353535" transform="translate(252,274)"/>
<path d="M0 0 C0.33 0.66 0.66 1.32 1 2 C-12.65559952 19.12368828 -12.65559952 19.12368828 -19 22 C-17.3812035 17.84873045 -14.33386628 15.145816 -11.1875 12.125 C-7.1885699 8.25953234 -3.49647032 4.3301943 0 0 Z " fill="#4E4E4E" transform="translate(311,208)"/>
<path d="M0 0 C0.66 0.33 1.32 0.66 2 1 C1.401875 1.556875 0.80375 2.11375 0.1875 2.6875 C-2.04266992 4.86054879 -2.04266992 4.86054879 -3.3125 7.3125 C-6.9912676 13.17127802 -12.14374344 17.42911185 -18 21 C-14.96418504 14.28531568 -9.21683412 9.07583861 -4 4 C-3.236875 3.236875 -2.47375 2.47375 -1.6875 1.6875 C-1.130625 1.130625 -0.57375 0.57375 0 0 Z " fill="#404040" transform="translate(227,301)"/>
<path d="M0 0 C0.33 0.66 0.66 1.32 1 2 C-2.22618988 6.94010325 -5.59903601 10.64666811 -10.1328125 14.421875 C-11.85058894 15.87371952 -13.43504931 17.38644835 -15 19 C-15.66 18.67 -16.32 18.34 -17 18 C-14.3544182 15.18726331 -11.70849239 12.37485045 -9.0625 9.5625 C-8.30775391 8.76005859 -7.55300781 7.95761719 -6.77539062 7.13085938 C-6.05673828 6.36708984 -5.33808594 5.60332031 -4.59765625 4.81640625 C-3.93258057 4.10943604 -3.26750488 3.40246582 -2.58227539 2.67407227 C-1.73112195 1.77353853 -0.87619153 0.87619153 0 0 Z " fill="#4C4C4C" transform="translate(331,187)"/>
<path d="M0 0 C3.875 1.75 3.875 1.75 5 4 C4.27167969 3.9071875 3.54335937 3.814375 2.79296875 3.71875 C-1.0387261 4.10459899 -2.13401338 5.69073119 -4.6875 8.5 C-6.09266577 10.0303318 -7.52368443 11.53818654 -9 13 C-9.66 13 -10.32 13 -11 13 C-9.46356148 9.31930113 -7.21849055 7.01224796 -4.375 4.25 C-3.55773437 3.45078125 -2.74046875 2.6515625 -1.8984375 1.828125 C-0.95871094 0.92320312 -0.95871094 0.92320312 0 0 Z " fill="#B6B6B6" transform="translate(120,139)"/>
<path d="M0 0 C0 3.67819168 -0.76843318 4.22382655 -3.1875 6.875 C-3.826875 7.57625 -4.46625 8.2775 -5.125 9 C-6.053125 9.99 -6.053125 9.99 -7 11 C-7.886875 11.94875 -8.77375 12.8975 -9.6875 13.875 C-11.78684744 15.80413008 -13.45716593 16.81155966 -16 18 C-11.37338295 11.26695568 -5.86878323 5.66001228 0 0 Z " fill="#9A9A9A" transform="translate(219,270)"/>
<path d="M0 0 C0.66 0 1.32 0 2 0 C1.42424336 3.35250701 0.40693737 4.93818629 -2.0625 7.25 C-2.88427734 8.03117188 -2.88427734 8.03117188 -3.72265625 8.828125 C-4.14417969 9.21484375 -4.56570312 9.6015625 -5 10 C-5.99 9.67 -6.98 9.34 -8 9 C-6.71520959 7.49410612 -5.42195918 5.99542625 -4.125 4.5 C-3.04605469 3.24703125 -3.04605469 3.24703125 -1.9453125 1.96875 C-1.30335937 1.3190625 -0.66140625 0.669375 0 0 Z " fill="#B8B8B8" transform="translate(88,172)"/>
<path d="M0 0 C2.83222793 3.37169992 4.52103176 6.85888893 6 11 C5.578125 13.21875 5.578125 13.21875 5 15 C2.62886517 10.03715966 0.56825653 5.54050113 0 0 Z " fill="#585858" transform="translate(35,300)"/>
<path d="M0 0 C0.33 0.99 0.66 1.98 1 3 C-0.38650433 5.77300866 -2.34253248 6.45496074 -5 8 C-6.34631825 8.98244845 -7.68441297 9.97676564 -9 11 C-7.59155282 7.78475695 -5.89655214 5.67816132 -3.375 3.25 C-2.74335937 2.63640625 -2.11171875 2.0228125 -1.4609375 1.390625 C-0.73777344 0.70226562 -0.73777344 0.70226562 0 0 Z " fill="#979797" transform="translate(70,191)"/>
<path d="M0 0 C0.66 0.66 1.32 1.32 2 2 C1.2575 2.556875 0.515 3.11375 -0.25 3.6875 C-2.91707995 5.93027178 -4.91556232 8.22074975 -7 11 C-7.66 10.67 -8.32 10.34 -9 10 C-8.34 9.01 -7.68 8.02 -7 7 C-6.34 7 -5.68 7 -5 7 C-4.34 5.68 -3.68 4.36 -3 3 C-2.34 3 -1.68 3 -1 3 C-0.67 2.01 -0.34 1.02 0 0 Z " fill="#404040" transform="translate(241,286)"/>
<path d="M0 0 C0 4.07746885 -1.52068051 5.83198065 -4 9 C-6.140625 9.6796875 -6.140625 9.6796875 -8 10 C-7.04367001 8.70684939 -6.08486149 7.41553147 -5.125 6.125 C-4.59132813 5.40570313 -4.05765625 4.68640625 -3.5078125 3.9453125 C-2 2 -2 2 0 0 Z " fill="#5F5F5F" transform="translate(340,177)"/>
<path d="M0 0 C0.99 0.33 1.98 0.66 3 1 C1.625 2.5 1.625 2.5 0 4 C-0.66 4 -1.32 4 -2 4 C-2.33 4.99 -2.66 5.98 -3 7 C-3.99 6.67 -4.98 6.34 -6 6 C-4.02 4.02 -2.04 2.04 0 0 Z " fill="#A8A8A8" transform="translate(95,165)"/>
<path d="M0 0 C0.33 0.66 0.66 1.32 1 2 C-0.65 3.65 -2.3 5.3 -4 7 C-4.66 6.67 -5.32 6.34 -6 6 C-4 4 -2 2 0 0 Z " fill="#A4A4A4" transform="translate(58,204)"/>
<path d="M0 0 C3.875 1.75 3.875 1.75 5 4 C2 4 -1 4 -4 4 C-2.68 2.68 -1.36 1.36 0 0 Z " fill="#A6A6A6" transform="translate(120,139)"/>
</svg>
